<svg width="14" height="9" viewBox="0 0 14 9" fill="none" xmlns="http://www.w3.org/2000/svg">
<path d="M1.84422 1.12002L7.00005 6.27585L12.1559 1.12002C12.3513 0.924643 12.6162 0.814883 12.8925 0.814883C13.1689 0.814883 13.4338 0.924643 13.6292 1.12002C13.8246 1.3154 13.9344 1.58038 13.9344 1.85669C13.9344 2.13299 13.8246 2.39798 13.6292 2.59335L7.73672 8.48502C7.64027 8.58226 7.52551 8.65943 7.39907 8.71207C7.27263 8.76471 7.13701 8.79177 7.00005 8.79169C6.72422 8.79169 6.45838 8.68169 6.26338 8.48669L0.371716 2.59419C0.181912 2.39778 0.0768423 2.13468 0.0791381 1.86156C0.0814339 1.58844 0.190911 1.32714 0.38399 1.13395C0.577069 0.940766 0.838302 0.831141 1.11142 0.828691C1.38454 0.82624 1.6477 0.931161 1.84422 1.12085L1.84422 1.12002Z" fill="#D8D8D8"/>
</svg>
